<?xml version="1.0" encoding="UTF-8"?>
<svg width="200px" height="200px" viewBox="0 0 200 200" version="1.1" xmlns="http://www.w3.org/2000/svg">
    <g stroke="none" stroke-width="1" fill="none" fill-rule="evenodd">
        <circle fill="#F8F9FA" cx="100" cy="100" r="100"/>
        <g transform="translate(50, 50)">
            <path d="M80,85 C80,92.732 73.732,99 66,99 L34,99 C26.268,99 20,92.732 20,85 L20,45 C20,37.268 26.268,31 34,31 L66,31 C73.732,31 80,37.268 80,45 L80,85 Z" fill="#E9ECEF"/>
            <path d="M50,20 C54.418,20 58,16.418 58,12 C58,7.582 54.418,4 50,4 C45.582,4 42,7.582 42,12 C42,16.418 45.582,20 50,20 Z" fill="#DEE2E6"/>
            <path d="M66,31 L34,31 C26.268,31 20,37.268 20,45 L20,85 C20,92.732 26.268,99 34,99 L66,99 C73.732,99 80,92.732 80,85 L80,45 C80,37.268 73.732,31 66,31 Z M50,91 C46.686,91 44,88.314 44,85 C44,81.686 46.686,79 50,79 C53.314,79 56,81.686 56,85 C56,88.314 53.314,91 50,91 Z M58,71 L42,71 L42,41 L58,41 L58,71 Z" fill="#ADB5BD"/>
        </g>
    </g>
</svg> 