<?xml version="1.0" encoding="UTF-8"?>
<svg width="600" height="400" viewBox="0 0 600 400" xmlns="http://www.w3.org/2000/svg">
    <!-- Server Rack -->
    <rect x="200" y="100" width="200" height="250" fill="#2c3e50" rx="5"/>
    <rect x="210" y="110" width="180" height="230" fill="#34495e" rx="3"/>
    
    <!-- Server Units -->
    <g fill="#ecf0f1">
        <rect x="220" y="120" width="160" height="30" rx="2"/>
        <rect x="220" y="160" width="160" height="30" rx="2"/>
        <rect x="220" y="200" width="160" height="30" rx="2"/>
        <rect x="220" y="240" width="160" height="30" rx="2"/>
        <rect x="220" y="280" width="160" height="30" rx="2"/>
    </g>
    
    <!-- Server Lights -->
    <g fill="#2ecc71">
        <circle cx="230" cy="135" r="3"/>
        <circle cx="230" cy="175" r="3"/>
        <circle cx="230" cy="215" r="3"/>
        <circle cx="230" cy="255" r="3"/>
        <circle cx="230" cy="295" r="3"/>
    </g>
    
    <!-- Network Lines -->
    <g stroke="#3498db" stroke-width="2" fill="none">
        <path d="M400 150 C450 150, 450 200, 500 200"/>
        <path d="M400 200 C450 200, 450 250, 500 250"/>
        <path d="M400 250 C450 250, 450 300, 500 300"/>
    </g>
    
    <!-- Cloud Elements -->
    <g fill="#3498db" opacity="0.8">
        <circle cx="520" cy="180" r="20"/>
        <circle cx="550" cy="180" r="15"/>
        <circle cx="535" cy="160" r="15"/>
    </g>
    
    <!-- Security Shield -->
    <g transform="translate(100, 200)">
        <path d="M0,-50 L30,-25 L30,25 L0,50 L-30,25 L-30,-25 Z" fill="#e74c3c" opacity="0.8"/>
        <path d="M0,-40 L20,-20 L20,20 L0,40 L-20,20 L-20,-20 Z" fill="#c0392b"/>
        <path d="M0,-30 L10,-15 L10,15 L0,30 L-10,15 L-10,-15 Z" fill="#e74c3c"/>
    </g>
</svg> 